HIERARCHY
ROOT hip
{
  OFFSET 0 0 0
  CHANNELS 6 Xposition Yposition Zposition Zrotation Yrotation Xrotation
  JOINT abdomen
  {
    OFFSET 0 20.6881 -0.73152
    CHANNELS 3 Zrotation Xrotation Yrotation
    JOINT chest
    {
      OFFSET 0 11.7043 -0.48768
      CHANNELS 3 Zrotation Xrotation Yrotation
      JOINT neck
      {
        OFFSET 0 22.1894 -2.19456
        CHANNELS 3 Zrotation Xrotation Yrotation
        JOINT head
        {
          OFFSET -0.24384 7.07133 1.2192
          CHANNELS 3 Zrotation Xrotation Yrotation
          JOINT leftEye
          {
            OFFSET 4.14528 8.04674 8.04672
            CHANNELS 3 Zrotation Xrotation Yrotation
            End Site
            {
              OFFSET 1 0 0
            }
          }
          JOINT rightEye
          {
            OFFSET -3.6576 8.04674 8.04672
            CHANNELS 3 Zrotation Xrotation Yrotation
            End Site
            {
              OFFSET 1 0 0
            }
          }
        }
      }
      JOINT rCollar
      {
        OFFSET -2.68224 19.2634 -4.8768
        CHANNELS 3 Zrotation Xrotation Yrotation
        JOINT rShldr
        {
          OFFSET -8.77824 -1.95073 1.46304
          CHANNELS 3 Zrotation Xrotation Yrotation
          JOINT rForeArm
          {
            OFFSET -28.1742 -1.7115 0.48768
            CHANNELS 3 Zrotation Xrotation Yrotation
            JOINT rHand
            {
              OFFSET -22.5879 0.773209 7.07136
              CHANNELS 3 Zrotation Xrotation Yrotation
              JOINT rThumb1
              {
                OFFSET -1.2192 -0.487915 3.41376
                CHANNELS 3 Zrotation Xrotation Yrotation
                JOINT rThumb2
                {
                  OFFSET -3.37035 -0.52449 3.41376
                  CHANNELS 3 Zrotation Xrotation Yrotation
                  End Site
                  {
                    OFFSET -1.78271 -1.18214 1.43049
                  }
                }
              }
              JOINT rIndex1
              {
                OFFSET -7.75947 0.938293 5.60832
                CHANNELS 3 Zrotation Xrotation Yrotation
                JOINT rIndex2
                {
                  OFFSET -2.54057 -0.884171 1.56538
                  CHANNELS 3 Zrotation Xrotation Yrotation
                  End Site
                  {
                    OFFSET -1.62519 -0.234802 1.16502
                  }
                }
              }
              JOINT rMid1
              {
                OFFSET -8.24714 1.18213 3.41376
                CHANNELS 3 Zrotation Xrotation Yrotation
                JOINT rMid2
                {
                  OFFSET -3.10165 -0.590103 1.0647
                  CHANNELS 3 Zrotation Xrotation Yrotation
                  End Site
                  {
                    OFFSET -2.48547 -0.328903 0.83742
                  }
                }
              }
              JOINT rRing1
              {
                OFFSET -8.82822 0.546677 1.51678
                CHANNELS 3 Zrotation Xrotation Yrotation
                JOINT rRing2
                {
                  OFFSET -2.60934 -0.819778 -0.0198488
                  CHANNELS 3 Zrotation Xrotation Yrotation
                  End Site
                  {
                    OFFSET -2.33842 -0.294052 0.168128
                  }
                }
              }
              JOINT rPinky1
              {
                OFFSET -8.27202 -0.0477905 -0.4584
                CHANNELS 3 Zrotation Xrotation Yrotation
                JOINT rPinky2
                {
                  OFFSET -1.82734 -0.647385 -0.700984
                  CHANNELS 3 Zrotation Xrotation Yrotation
                  End Site
                  {
                    OFFSET -1.69225 -0.51767 -0.607171
                  }
                }
              }
            }
          }
        }
      }
      JOINT lCollar
      {
        OFFSET 2.68224 19.2634 -4.8768
        CHANNELS 3 Zrotation Xrotation Yrotation
        JOINT lShldr
        {
          OFFSET 8.77824 -1.95073 1.46304
          CHANNELS 3 Zrotation Xrotation Yrotation
          JOINT lForeArm
          {
            OFFSET 28.1742 -1.7115 0.48768
            CHANNELS 3 Zrotation Xrotation Yrotation
            JOINT lHand
            {
              OFFSET 22.5879 0.773209 7.07136
              CHANNELS 3 Zrotation Xrotation Yrotation
              JOINT lThumb1
              {
                OFFSET 1.2192 -0.487915 3.41376
                CHANNELS 3 Zrotation Xrotation Yrotation
                JOINT lThumb2
                {
                  OFFSET 3.37035 -0.52449 3.41376
                  CHANNELS 3 Zrotation Xrotation Yrotation
                  End Site
                  {
                    OFFSET 1.78271 -1.18214 1.43049
                  }
                }
              }
              JOINT lIndex1
              {
                OFFSET 7.75947 0.938293 5.60832
                CHANNELS 3 Zrotation Xrotation Yrotation
                JOINT lIndex2
                {
                  OFFSET 2.54057 -0.884171 1.56538
                  CHANNELS 3 Zrotation Xrotation Yrotation
                  End Site
                  {
                    OFFSET 1.62519 -0.234802 1.16502
                  }
                }
              }
              JOINT lMid1
              {
                OFFSET 8.24714 1.18213 3.41376
                CHANNELS 3 Zrotation Xrotation Yrotation
                JOINT lMid2
                {
                  OFFSET 3.10165 -0.590103 1.0647
                  CHANNELS 3 Zrotation Xrotation Yrotation
                  End Site
                  {
                    OFFSET 2.48547 -0.328903 0.83742
                  }
                }
              }
              JOINT lRing1
              {
                OFFSET 8.82822 0.546677 1.51678
                CHANNELS 3 Zrotation Xrotation Yrotation
                JOINT lRing2
                {
                  OFFSET 2.60934 -0.819778 -0.0198488
                  CHANNELS 3 Zrotation Xrotation Yrotation
                  End Site
                  {
                    OFFSET 2.33842 -0.294052 0.168128
                  }
                }
              }
              JOINT lPinky1
              {
                OFFSET 8.27202 -0.0477905 -0.4584
                CHANNELS 3 Zrotation Xrotation Yrotation
                JOINT lPinky2
                {
                  OFFSET 1.82734 -0.647385 -0.700984
                  CHANNELS 3 Zrotation Xrotation Yrotation
                  End Site
                  {
                    OFFSET 1.69225 -0.51767 -0.607171
                  }
                }
              }
            }
          }
        }
      }
    }
  }
  JOINT rButtock
  {
    OFFSET -8.77824 4.35084 1.2192
    CHANNELS 3 Zrotation Xrotation Yrotation
    JOINT rThigh
    {
      OFFSET 0 -1.70687 -2.19456
      CHANNELS 3 Zrotation Xrotation Yrotation
      JOINT rShin
      {
        OFFSET 0 -36.8199 0.73152
        CHANNELS 3 Zrotation Xrotation Yrotation
        JOINT rFoot
        {
          OFFSET 0.73152 -45.1104 -5.12064
          CHANNELS 3 Zrotation Xrotation Yrotation
          End Site
          {
            OFFSET -1.1221 -3.69964 12.103
          }
        }
      }
    }
  }
  JOINT lButtock
  {
    OFFSET 8.77824 4.35084 1.2192
    CHANNELS 3 Zrotation Xrotation Yrotation
    JOINT lThigh
    {
      OFFSET 0 -1.70687 -2.19456
      CHANNELS 3 Zrotation Xrotation Yrotation
      JOINT lShin
      {
        OFFSET 0 -36.8199 0.73152
        CHANNELS 3 Zrotation Xrotation Yrotation
        JOINT lFoot
        {
          OFFSET -0.73152 -45.1104 -5.12064
          CHANNELS 3 Zrotation Xrotation Yrotation
          End Site
          {
            OFFSET 1.1221 -3.69964 12.103
          }
        }
      }
    }
  }
}
MOTION
Frames:	7
Frame Time:	0.00833333
42.1932 82.0376 8.41417 -2.7017 -2.273 5.2659 5.24359 -1.45796 5.92099 -0.985461 -3.37368 1.60476 -3.13475 8.44912 -1.80047 4.31622 -11.0914 -2.68584 -0.0 0.0 0.0 -0.0 0.0 0.0 2.72402e-14 -2.03479e-13 1.28452e-13 81.5606 17.9602 -0.745682 -17.1423 -9.78712 32.1373 -0.0332342 5.13875 0.724734 3.0027e-10 -1.74837e-09 6.03021e-10 5.26e-10 -3.03271e-09 1.04206e-09 3.00268e-10 -1.74837e-09 6.02989e-10 7.73091 5.47488 0.417314 3.00268e-10 -1.74837e-09 6.03015e-10 2.90554 0.965183 0.102902 3.00274e-10 -1.74837e-09 6.03015e-10 10.2786 0.731801 0.0259123 3.00264e-10 -1.74837e-09 6.0302e-10 2.22167 -0.733487 -0.20892 2.73652e-14 -2.03473e-13 1.28347e-13 -84.742 28.2897 3.55225 9.70894 -3.96829 -17.2626 0.0311735 -3.91886 0.547287 1.05936e-09 -1.05323e-09 -1.54201e-09 1.83144e-09 -1.82059e-09 -2.66274e-09 1.05935e-09 -1.05323e-09 -1.542e-09 -7.73091 5.47488 -0.417314 1.05936e-09 -1.05323e-09 -1.54201e-09 -2.90554 0.965183 -0.102902 1.05936e-09 -1.05323e-09 -1.54201e-09 -10.2786 0.731801 -0.0259123 1.05937e-09 -1.05323e-09 -1.54202e-09 -2.22167 -0.733487 0.20892 -2.03217e-16 0.0 -3.88251e-19 7.31801 -20.7332 0.186986 -0.243972 33.4363 0.469814 4.42694 -11.5479 15.6449 2.03217e-16 0.0 3.88251e-19 6.70508 -38.0028 9.59436 1.14318 61.3654 -1.63186 1.39437 -6.29579 4.25235
42.2238 82.1168 9.72356 -2.7459 -2.5556 5.2758 5.10382 -1.50446 6.09878 -1.07996 -3.39469 1.64574 -3.15955 8.6749 -1.78264 4.45459 -11.2331 -2.63976 -0.0 0.0 0.0 -0.0 0.0 0.0 1.32196e-14 -2.0205e-13 1.63113e-13 80.8472 19.4038 0.48037 -17.7702 -10.4382 33.5192 -0.0134902 3.40412 0.478984 4.51769e-10 -1.99376e-09 2.71471e-10 7.86434e-10 -3.45581e-09 4.67428e-10 4.51769e-10 -1.99376e-09 2.71445e-10 7.73091 5.47488 0.417314 4.51769e-10 -1.99375e-09 2.71467e-10 2.90554 0.965183 0.102902 4.51774e-10 -1.99375e-09 2.71469e-10 10.2786 0.731801 0.0259123 4.51761e-10 -1.99376e-09 2.71475e-10 2.22167 -0.733487 -0.20892 1.33128e-14 -2.02045e-13 1.62954e-13 -85.4037 26.3109 5.0432 8.85459 -3.48084 -15.6622 0.0180927 -1.06538 0.145076 9.7584e-10 -1.25103e-09 -1.55992e-09 1.68299e-09 -2.16522e-09 -2.6961e-09 9.75822e-10 -1.25103e-09 -1.55991e-09 -7.73091 5.47488 -0.417314 9.75829e-10 -1.25103e-09 -1.55993e-09 -2.90554 0.965183 -0.102902 9.75838e-10 -1.25103e-09 -1.55993e-09 -10.2786 0.731801 -0.0259123 9.7584e-10 -1.25103e-09 -1.55993e-09 -2.22167 -0.733487 0.20892 -2.03217e-16 0.0 -3.88251e-19 6.96543 -19.4517 -0.291823 -0.239281 32.806 0.442942 4.78741 -11.7073 16.5493 2.03217e-16 0.0 3.88251e-19 6.56291 -38.775 9.51187 1.01816 59.3456 -1.47127 1.51085 -6.70219 4.77367
42.2741 82.3069 11.043 -2.589 -3.0141 5.3219 4.98213 -1.56114 6.30206 -1.19227 -3.38092 1.6946 -3.08824 8.78953 -1.75765 4.44374 -11.359 -2.60326 -0.0 0.0 0.0 -0.0 0.0 0.0 -1.67305e-15 -1.78834e-13 1.67874e-13 80.0698 20.7838 1.72242 -18.3963 -11.1192 34.9154 -0.00377065 1.75307 0.246455 5.17734e-10 -1.99433e-09 7.21827e-11 8.9892e-10 -3.45481e-09 1.2214e-10 5.17736e-10 -1.99434e-09 7.21604e-11 7.73091 5.47488 0.417314 5.17735e-10 -1.99433e-09 7.21795e-11 2.90554 0.965183 0.102902 5.1774e-10 -1.99433e-09 7.21835e-11 10.2786 0.731801 0.0259123 5.17724e-10 -1.99433e-09 7.2189e-11 2.22167 -0.733487 -0.20892 -1.60703e-15 -1.78829e-13 1.67675e-13 -85.8907 23.7771 6.52232 8.06383 -3.04516 -14.2173 0.00632831 2.27077 -0.319305 8.3798e-10 -1.26814e-09 -1.38815e-09 1.44359e-09 -2.19633e-09 -2.40054e-09 8.37961e-10 -1.26814e-09 -1.38813e-09 -7.73091 5.47488 -0.417314 8.37968e-10 -1.26814e-09 -1.38815e-09 -2.90554 0.965183 -0.102902 8.37979e-10 -1.26814e-09 -1.38815e-09 -10.2786 0.731801 -0.0259123 8.37981e-10 -1.26814e-09 -1.38815e-09 -2.22167 -0.733487 0.20892 -2.03217e-16 0.0 -3.88251e-19 6.66472 -18.1972 -0.713881 -0.233694 32.0796 0.411657 5.06624 -11.6378 17.3847 2.03217e-16 0.0 3.88251e-19 6.46038 -39.4808 9.42117 0.895412 57.1301 -1.30938 1.6426 -7.31304 5.28767
42.2497 82.4895 12.2938 -2.7115 -3.5253 5.4887 4.85651 -1.63918 6.53989 -1.32721 -3.31239 1.75408 -2.8571 8.73785 -1.72632 4.17933 -11.4596 -2.59481 -0.0 0.0 0.0 -0.0 0.0 0.0 -2.12252e-14 -1.12823e-13 1.15669e-13 79.2324 22.1227 2.98136 -19.0226 -11.832 36.3468 -8.89555e-05 0.122003 0.0175544 4.93694e-10 -1.78502e-09 8.59828e-11 8.55432e-10 -3.08922e-09 1.46373e-10 4.93701e-10 -1.78502e-09 8.59631e-11 7.73091 5.47488 0.417314 4.93698e-10 -1.78502e-09 8.59803e-11 2.90554 0.965183 0.102902 4.93704e-10 -1.78502e-09 8.59856e-11 10.2786 0.731801 0.0259123 4.93685e-10 -1.78502e-09 8.599e-11 2.22167 -0.733487 -0.20892 -2.11775e-14 -1.1282e-13 1.15446e-13 -86.0908 20.3286 7.98455 7.34755 -2.67112 -12.9272 0.0138675 6.51189 -0.910717 6.04163e-10 -9.7036e-10 -8.57605e-10 1.04348e-09 -1.6815e-09 -1.48351e-09 6.04146e-10 -9.70365e-10 -8.5759e-10 -7.73091 5.47488 -0.417314 6.04153e-10 -9.70366e-10 -8.57605e-10 -2.90554 0.965183 -0.102902 6.04162e-10 -9.70361e-10 -8.57605e-10 -10.2786 0.731801 -0.0259123 6.04164e-10 -9.70359e-10 -8.57611e-10 -2.22167 -0.733487 0.20892 -2.03217e-16 0.0 -3.88251e-19 6.41783 -17.0061 -1.05255 -0.227987 31.2577 0.376258 5.21608 -11.2655 18.1034 2.03217e-16 0.0 3.88251e-19 6.39078 -40.1288 9.35356 0.778119 54.6796 -1.14743 1.80739 -8.23993 5.8134
42.1589 82.6602 13.5141 -2.994 -3.9849 5.6465 4.71695 -1.72858 6.79642 -1.47649 -3.20998 1.81957 -2.51878 8.58466 -1.68957 3.74887 -11.5692 -2.60202 -0.0 0.0 0.0 -0.0 0.0 0.0 -4.54843e-14 -1.411e-14 2.48357e-14 78.3316 23.3826 4.25981 -19.6342 -12.5612 37.7907 -0.000655635 -1.46277 -0.205163 4.12874e-10 -1.41469e-09 2.13459e-10 7.13277e-10 -2.44383e-09 3.67804e-10 4.12889e-10 -1.4147e-09 2.13442e-10 7.73091 5.47488 0.417314 4.12882e-10 -1.4147e-09 2.13458e-10 2.90554 0.965183 0.102902 4.12889e-10 -1.41471e-09 2.13464e-10 10.2786 0.731801 0.0259123 4.12867e-10 -1.41469e-09 2.13466e-10 2.22167 -0.733487 -0.20892 -4.54534e-14 -1.4108e-14 2.45934e-14 -85.9703 16.1899 9.45039 6.70836 -2.36514 -11.7671 0.103109 11.4543 -1.61807 2.7954e-10 -4.56e-10 -5.08694e-11 4.8964e-10 -7.91461e-10 -8.8346e-11 2.79526e-10 -4.56e-10 -5.08504e-11 -7.73091 5.47488 -0.417314 2.79534e-10 -4.56002e-10 -5.08705e-11 -2.90554 0.965183 -0.102902 2.79536e-10 -4.55999e-10 -5.08683e-11 -10.2786 0.731801 -0.0259123 2.7954e-10 -4.55997e-10 -5.08745e-11 -2.22167 -0.733487 0.20892 -2.03217e-16 0.0 -3.88251e-19 6.18665 -15.85 -1.34747 -0.222966 30.355 0.336882 5.26912 -10.6725 18.7586 2.03217e-16 0.0 3.88251e-19 6.31627 -40.697 9.2701 0.67124 51.9786 -0.988479 2.00897 -9.28328 6.39846
42.1431 82.7975 14.7537 -3.0166 -4.3467 5.7825 4.62118 -1.81151 7.06317 -1.63586 -3.10303 1.88839 -2.17662 8.40541 -1.64492 3.32118 -11.6833 -2.59267 -0.0 0.0 0.0 -0.0 0.0 0.0 -6.58931e-14 7.76124e-14 -5.74806e-14 77.3745 24.5345 5.55625 -20.2241 -13.298 39.2251 -0.00754002 -2.87756 -0.404508 2.60412e-10 -7.68147e-10 3.47308e-10 4.47532e-10 -1.32111e-09 6.00271e-10 2.60433e-10 -7.6816e-10 3.47293e-10 7.73091 5.47488 0.417314 2.60423e-10 -7.68164e-10 3.47307e-10 2.90554 0.965183 0.102902 2.60431e-10 -7.68165e-10 3.47314e-10 10.2786 0.731801 0.0259123 2.60407e-10 -7.68144e-10 3.47315e-10 2.22167 -0.733487 -0.20892 -6.58811e-14 7.76132e-14 -5.7733e-14 -85.6392 12.0424 10.9393 6.14976 -2.1131 -10.7533 0.294073 16.2949 -2.34443 -4.61026e-11 4.67279e-11 7.13578e-10 -6.61993e-11 7.88836e-11 1.23423e-09 -4.61118e-11 4.67323e-11 7.136e-10 -7.73091 5.47488 -0.417314 -4.61037e-11 4.67289e-11 7.13576e-10 -2.90554 0.965183 -0.102902 -4.61081e-11 4.67303e-11 7.1358e-10 -10.2786 0.731801 -0.0259123 -4.61023e-11 4.67315e-11 7.13573e-10 -2.22167 -0.733487 0.20892 -2.03217e-16 0.0 -3.88251e-19 5.97976 -14.6697 -1.6358 -0.217875 29.3593 0.293622 5.27371 -9.97633 19.4143 2.03217e-16 0.0 3.88251e-19 6.27969 -41.1823 9.12737 0.575397 49.1267 -0.835938 2.22473 -10.3391 6.97044
42.2145 82.8661 16.0078 -2.9097 -4.7679 5.9347 4.62653 -1.87023 7.33162 -1.80095 -3.02088 1.95785 -1.93411 8.27556 -1.58986 3.06531 -11.7974 -2.53448 -0.0 0.0 0.0 -0.0 0.0 0.0 -7.38943e-14 1.2265e-13 -8.41356e-14 76.3712 25.5498 6.8672 -20.7876 -14.0355 40.6276 -0.0196512 -3.99874 -0.562909 2.14433e-11 2.69834e-10 3.80226e-10 3.32754e-11 4.76444e-10 6.57615e-10 2.14679e-11 2.6982e-10 3.80213e-10 7.73091 5.47488 0.417314 2.14557e-11 2.69813e-10 3.80226e-10 2.90554 0.965183 0.102902 2.14652e-11 2.69814e-10 3.80232e-10 10.2786 0.731801 0.0259123 2.14399e-11 2.69839e-10 3.80232e-10 2.22167 -0.733487 -0.20892 -7.3907e-14 1.2265e-13 -8.43841e-14 -85.2769 8.5564 12.46 5.67356 -1.90022 -9.90264 0.529977 20.2342 -2.96949 -2.82975e-10 3.09608e-10 1.11726e-09 -4.72302e-10 5.34632e-10 1.93348e-09 -2.82981e-10 3.09615e-10 1.11728e-09 -7.73091 5.47488 -0.417314 -2.82973e-10 3.09611e-10 1.11725e-09 -2.90554 0.965183 -0.102902 -2.82982e-10 3.09611e-10 1.11726e-09 -10.2786 0.731801 -0.0259123 -2.82975e-10 3.09612e-10 1.11725e-09 -2.22167 -0.733487 0.20892 -2.03217e-16 0.0 -3.88251e-19 5.81013 -13.4058 -1.95362 -0.212031 28.2583 0.246596 5.28112 -9.29304 20.1335 2.03217e-16 0.0 3.88251e-19 6.32253 -41.5812 8.88109 0.4886 46.2238 -0.690683 2.42256 -11.3049 7.45459
